<svg id="Layer_1" xmlns="http://www.w3.org/2000/svg" viewBox="0 0 229.3 151.4"><style>.Arched_x0020_Green{fill:url(#SVGID_1_);stroke:#FFFFFF;stroke-width:0.25;stroke-miterlimit:1;} .st0{fill:none;stroke:#000000;stroke-width:0.5;stroke-linecap:round;stroke-linejoin:round;} .st1{fill:#FFFFFF;}</style><linearGradient id="SVGID_1_" gradientUnits="userSpaceOnUse" x1="-740.823" y1="246.248" x2="-740.115" y2="245.541"><stop offset="0" stop-color="#20AC4B"/><stop offset=".983" stop-color="#19361A"/></linearGradient><path d="M228.5 53.4c-.6-.5-1.2-.7-1.9-.7-.9 0-1.6.4-2.2 1.2-.3.3-.7.5-1.3.7-.6.2-1.4.3-2.5.3h-.4c.3-.5.7-1.1 1.1-1.9.4-.8.6-1.6.9-2.5.2-.9.5-1.8.6-2.6.2-.9.3-1.6.3-2.3 0-1.8-.3-3.2-.9-4.3-.6-1.1-1.4-2-2.2-2.5-.8-.6-1.7-.9-2.6-1.2-.9-.2-1.6-.3-2.1-.3.6-.6.8-1.3.8-2.1 0-1.1-.6-1.9-1.8-2.3-1-.4-2-.6-3.2-.8-1.1-.2-2.3-.3-3.6-.3-3.8 0-7.1.8-9.8 2.5-2.7 1.7-5 3.8-6.8 6.3-1.8 2.5-3.2 5.2-4.1 8-.6 1.9-.9 3.6-1.1 5.3-1 1-2.1 2.1-3.4 3.3-1.5 1.3-3 2.6-4.5 3.7s-2.9 2.1-4.2 2.8c-1.3.8-2.1 1.2-2.6 1.2h-.2c-.4-.1-.5-.7-.5-1.7 0-1.3.4-3.5 1.2-6.4.8-2.9 1.7-6 2.7-9.3 8.2-8.6 14.5-16.4 18.8-23.4 4.3-7.1 6.5-13 6.5-17.8 0-1.6-.2-3-.7-4.2-.5-1.2-1.4-1.8-2.7-1.8-2.7 0-5.2 1.4-7.6 4.1-2.4 2.7-4.7 6.3-6.8 10.6-2.2 4.3-4.3 9.1-6.3 14.5-2 5.3-3.9 10.6-5.7 15.8-1.5 1.7-2.9 3.2-4.2 4.6-1.3 1.4-2.4 2.6-3.4 3.6l-.1.1c-1.1 1.1-2.3 2.4-3.8 3.7-1.5 1.3-3 2.6-4.5 3.7s-2.9 2.1-4.2 2.8c-1.3.8-2.1 1.2-2.6 1.2h-.2c-.4-.1-.5-.7-.5-1.7 0-1.3.4-3.5 1.2-6.4.8-2.9 1.7-6 2.7-9.3 8.2-8.6 14.5-16.4 18.8-23.4 4.3-7.1 6.5-13 6.5-17.8 0-1.6-.2-3-.7-4.2-.5-1.2-1.4-1.8-2.7-1.8-2.7 0-5.2 1.4-7.6 4.1-2.4 2.7-4.7 6.3-6.8 10.6-2.2 4.3-4.3 9.1-6.3 14.5-2 5.3-3.9 10.6-5.7 15.8-1.5 1.7-2.9 3.2-4.2 4.6-1.1 1.2-2 2.2-2.9 3.1-.3.1-.8.5-1.2.9-1.1 1.1-2.2 2.3-3.6 3.6-1.3 1.4-2.8 2.7-4.5 3.9-1.6 1.2-3.5 2.3-5.5 3.1-2 .8-4.2 1.3-6.6 1.3-2.2 0-3.9-.9-4.9-2.6-1.1-1.7-1.6-3.9-1.6-6.5 0-.3 0-.5.1-.7 0-.2.1-.5.2-.8 2-.9 4.2-1.9 6.5-3.1 2.3-1.2 4.5-2.4 6.5-3.8s3.7-3 5-4.7c1.3-1.8 2-3.7 2-5.8 0-2-.6-3.6-1.8-4.6-1.2-1.1-2.8-1.6-4.6-1.6-2.2 0-4.5.7-6.8 2.1-2.3 1.4-4.4 3.2-6.2 5.5-1.9 2.3-3.4 4.9-4.5 7.9-.9 2.4-1.5 5-1.7 7.6-.9.9-1.9 1.9-3 2.8-1.5 1.4-3.1 2.6-4.5 3.8-1.5 1.2-2.8 2.1-4.1 2.9-1.2.8-2.1 1.2-2.6 1.2-.8 0-1.2-.6-1.4-1.8-.2-1.2.3-3 1.3-5.4.7-1.7 1.8-3.8 3.3-6.5 1.5-2.6 3-5.3 4.4-7.9.6-1.2 1.1-2.5 1.5-3.9.4-1.4.6-2.6.6-3.6 0-1.3-.4-2.5-1.2-3.5-.8-1-2-1.5-3.6-1.5s-3.4.4-5.3 1.2c-1.9.8-3.8 1.8-5.6 3.1-1.9 1.3-3.7 2.7-5.4 4.3-1.8 1.6-3.3 3.1-4.7 4.7.9-2 1.8-3.9 2.6-5.9.8-2 1.6-3.9 2.4-5.8 3.2-3.2 6-6.2 8.2-8.8 2.2-2.6 4.1-5 5.4-7.1 1.4-2.1 2.4-4 2.9-5.6.6-1.6.9-3.1.9-4.3 0-4.5-1.7-6.7-5.1-6.7-2 0-3.9 1-5.5 2.9s-3.2 4.4-4.5 7.3c-1.4 2.9-2.6 6.1-3.7 9.6-1.1 3.4-2.1 6.7-3.1 9.7-1.9 2.1-3.7 4.1-5.5 6.1-1.8 2-3.5 3.9-5.3 5.7-1.8 1.9-3.5 3.7-5.3 5.6-1.8 1.9-3.6 3.8-5.6 5.8-.8.8-1.2 1.5-1.2 2.3 0 .8.2 1.5.7 2 .5.5 1.1.7 1.8.7.6 0 1.2-.3 1.8-.8 2.3-2.4 4.4-4.6 6.4-6.8 1.9-2.1 3.8-4.3 5.7-6.4-.8 1.8-1.8 3.9-2.9 6.2C65 52.7 64 55 63 57.1c-.9 2.2-1.8 4.2-2.4 5.9-.7 1.8-1 3-1 3.7 0 .8.3 1.5.8 1.8.6.4 1.3.6 2.2.6 1.4 0 2.6-1.1 3.7-3.3.8-1.6 1.5-3.2 2.2-4.9.7-1.6 1.6-3.8 2.8-6.5 1.3-1.7 2.9-3.6 5.1-5.7 2.1-2.1 4.3-4.1 6.5-5.9 2.2-1.8 4.3-3.3 6.3-4.6 2-1.2 3.4-1.8 4.4-1.8.8 0 1.3.5 1.3 1.4 0 .5-.1 1-.3 1.4-.2.5-.5 1.1-1 2.1-.9 1.8-1.9 3.7-3.1 5.7-1.2 2-2.2 3.9-3.2 5.8s-1.8 3.8-2.5 5.7c-.7 1.9-1.1 3.6-1.1 5.3 0 2 .5 3.6 1.5 4.8 1 1.2 2.6 1.8 4.9 1.8 1.3 0 2.7-.4 4.4-1.3 1.7-.8 3.4-1.9 5.2-3.2 1.8-1.3 3.5-2.7 5.2-4.3.1-.1.2-.2.3-.2.5 2.4 1.4 4.4 2.7 5.9 2.1 2.5 5 3.7 8.7 3.7 3 0 5.8-.5 8.3-1.5 2.5-1 4.7-2.2 6.7-3.6s3.7-2.8 5.2-4.3c1.4-1.5 2.6-2.6 3.5-3.5.1-.1.2-.2.3-.4.2-.1.4-.3.6-.5l.3-.3c-.6 2.5-.9 4.7-.9 6.6 0 2 .4 3.6 1.3 4.8.9 1.2 2.3 1.8 4.4 1.8 1.5 0 3.2-.4 4.8-1.3 1.7-.9 3.4-2 5.1-3.3 1.7-1.3 3.3-2.7 4.9-4.3 1.5-1.5 2.9-2.9 4.2-4.1l.3-.3c-.6 2.5-.9 4.7-.9 6.6 0 2 .4 3.6 1.3 4.8.9 1.2 2.3 1.8 4.4 1.8 1.5 0 3.2-.4 4.8-1.3 1.7-.9 3.4-2 5.1-3.3 1.7-1.3 3.3-2.7 4.9-4.3l.5-.5c.1.3.2.7.3 1 .5 1.7 1.3 3.2 2.4 4.5 1.1 1.3 2.4 2.3 4.1 3.1 1.6.8 3.6 1.2 5.9 1.2 2.1 0 4.1-.3 5.8-.9 1.8-.6 3.5-1.4 5-2.4s2.9-2.2 4.2-3.5c1.2-1.3 2.4-2.7 3.4-4.2 1.3.4 2.5.5 3.6.5 1.8 0 3.4-.3 4.8-1 1.5-.7 2.6-1.5 3.4-2.6.4-.6.5-1.1.5-1.5.2-.4-.1-.9-.6-1.4zM183.3 24c1.4-3.1 2.8-5.9 4.2-8.5 1.4-2.6 2.7-4.8 3.9-6.6 1.2-1.8 2.3-3 3.1-3.5 0 2.2-.6 4.6-1.8 7.3-1.2 2.7-2.6 5.4-4.3 7.9-1.6 2.6-3.3 5-5 7.2-1.7 2.2-3.1 3.9-4.1 5.2 1.3-2.9 2.6-5.9 4-9zm-24 0c1.4-3.1 2.8-5.9 4.2-8.5 1.4-2.6 2.7-4.8 3.9-6.6 1.2-1.8 2.3-3 3.1-3.5 0 2.2-.6 4.6-1.8 7.3-1.2 2.7-2.6 5.4-4.3 7.9-1.6 2.6-3.3 5-5 7.2-1.7 2.2-3.1 3.9-4.1 5.2 1.3-2.9 2.6-5.9 4-9zm-44.9 19.6c1.1-1.5 2.2-2.8 3.3-3.8 1.1-1 2.2-1.8 3.3-2.3 1.1-.5 1.9-.8 2.6-.8.6 0 1 .1 1.3.2.3.1.5.6.5 1.3 0 .9-.4 1.9-1.2 2.9-.8 1-1.9 2-3.2 2.9-1.3.9-2.8 1.9-4.4 2.7-1.6.9-3.2 1.7-4.8 2.4.6-2.2 1.5-4 2.6-5.5zM84.3 18.5c.7-1.9 1.5-3.7 2.3-5.5.8-1.8 1.6-3.4 2.4-4.8.8-1.4 1.4-2.4 2-3 1.1-1.1 1.6-.6 1.6 1.3 0 1.2-.8 3.3-2.3 6.3-1.5 3-4.1 6.6-7.6 10.6.3-1.4.9-3.1 1.6-4.9zM206.1 63c-2.2 1.5-4.7 2.3-7.5 2.3-2.5 0-4.5-.9-5.8-2.6-1.4-1.8-2.1-4-2.1-6.6 0-2 .3-4.1 1.1-6.3.7-2.2 1.8-4.3 3.2-6.2 1.4-1.9 3.1-3.5 5.2-4.7 2.1-1.2 4.5-1.8 7.2-1.8 1.7 0 3.2.2 4.6.6-1.8.6-3.3 1.7-4.4 3.3-1.1 1.6-1.6 3.5-1.6 5.4 0 1.3.2 2.5.7 3.6.5 1.2 1 2.2 1.6 3.2.6.9 1.3 1.8 2 2.4.7.7 1.3 1.2 1.9 1.6-1.9 2.4-3.9 4.3-6.1 5.8zM217 49.6c-.5 1.1-1.1 2.3-1.9 3.5-1.5-1.1-2.6-2.3-3.1-3.7-.5-1.4-.8-2.6-.8-3.4 0-2.2 1.2-3.4 3.6-3.4 1.3 0 2.1.2 2.4.7.4.5.5 1.3.5 2.3 0 1.5-.2 2.8-.7 4zm-82.3 52c-.6-.5-1.2-.7-1.9-.7-.9 0-1.6.4-2.2 1.2-.3.3-.7.5-1.3.7-.6.2-1.4.3-2.5.3h-.4c.3-.5.7-1.1 1.1-1.9.4-.8.6-1.6.9-2.5.2-.9.5-1.8.6-2.6.2-.9.3-1.6.3-2.3 0-1.8-.3-3.2-.9-4.3-.6-1.1-1.4-2-2.2-2.5-.8-.6-1.7-.9-2.6-1.2-.9-.2-1.6-.3-2.1-.3.6-.6.8-1.3.8-2.1 0-1.1-.6-1.9-1.8-2.3-1-.4-2-.6-3.2-.8-1.1-.2-2.3-.3-3.6-.3-3.8 0-7.1.8-9.8 2.5-2.7 1.7-5 3.8-6.8 6.3-1.8 2.5-3.2 5.2-4.1 8-.6 1.9-.9 3.6-1.1 5.3-1.1 1.3-2.2 2.5-3.5 3.6-1.4 1.2-2.8 2.3-4.2 3.3-1.4 1-2.8 1.8-4.1 2.6-1.3.7-2.5 1.3-3.5 1.7 2.2-4.2 4-8.2 5.6-12 1.5-3.8 2.9-7 4.2-9.6.7-1.4 1.2-2.6 1.6-3.6.4-1 .6-1.9.6-2.7 0-.4-.2-.8-.6-1.2-.4-.4-.8-.6-1.3-.8-.5-.2-1-.2-1.4-.2-.5 0-.8.2-1 .6-2.1 3.9-4.3 7.3-6.5 10.2-2.2 2.9-4.5 5.5-6.8 7.6-2.3 2.1-4.5 3.9-6.6 5.4-2.1 1.4-4.2 2.6-6.1 3.4-1.5.6-2.3.3-2.4-1.1-.1-1.3.1-3.2.8-5.6.7-2.4 1.7-5.1 2.9-8.1 1.3-2.9 2.5-5.7 3.8-8.3.8-1.5.9-2.8.3-3.6-.6-.9-1.3-1.3-2.3-1.3-.6 0-1.1.3-1.5 1l-1.5 2.1c-1.8 2.4-3.9 5-6.6 7.8-2.5 2.7-5 5.3-7.5 7.9-.3.2-.6.4-.9.7-.8 1-2 2.1-3.5 3.4-1.5 1.3-3 2.5-4.6 3.7-1.6 1.2-3.1 2.2-4.6 3-1.5.8-2.6 1.2-3.4 1.2-.7 0-1.1-.6-1.1-1.7 0-.8.4-2 1.1-3.6.7-1.5 1.6-3.1 2.5-4.8.9-1.6 1.8-3.2 2.7-4.6.9-1.4 1.4-2.4 1.6-2.9.5-1 .9-1.9 1.2-2.7.3-.8.4-1.5.4-2.2 0-1.5-.8-2.3-2.3-2.3-.9 0-1.6.2-1.9.7-.4.5-1 1.4-1.8 2.8-1 1.8-2.3 3.9-3.8 6.4-1.6 2.5-3.3 4.9-5.2 7.2-1.9 2.3-3.8 4.3-5.8 5.9-2 1.6-3.9 2.4-5.6 2.4-1.3 0-2.3-.4-3-1.3-.7-.8-1.1-2.1-1.1-3.7s.4-3.9 1.3-6.7c.8-2.9 2.4-5.7 4.7-8.6 2.3-2.8 5.4-5.3 9.5-7.4 4-2.1 9.2-3.1 15.6-3.1 1.4 0 2.4-.3 2.9-.8.6-.5.8-1.1.8-1.8s-.2-1.3-.7-1.8c-.5-.5-1.3-.8-2.5-.8-6.7 0-12.4 1-17.1 3.1-4.7 2.1-8.4 4.6-11.3 7.7-2.9 3.1-5 6.4-6.3 10-1.3 3.6-1.9 6.9-1.9 10 0 3.2.7 5.8 1.9 7.6 1.3 1.9 3.5 2.8 6.7 2.8 2.4 0 4.6-.5 6.7-1.6 2.1-1.1 4-2.4 5.7-4.1 0 1.4.5 2.6 1.5 3.6s2.1 1.5 3.5 1.5c1.9 0 3.8-.4 5.8-1.2 2-.8 3.9-1.8 5.7-3.1 1.8-1.3 3.6-2.6 5.2-4.1 1.6-1.5 3.1-2.8 4.4-4.1.2-.3.4-.5.6-.8l4.7-4.7c-1 2.4-1.6 4.7-1.8 6.9-.2 2.2 0 4.1.5 5.7.6 1.5 1.5 2.6 2.8 3.1 1.3.5 3.1.3 5.4-.7 2.2-1 4.6-2.2 7-3.8 2.4-1.5 4.9-3.4 7.3-5.7l-.1.2c-.8 1.8-1.7 3.7-2.5 5.6-.8 1.9-1.7 3.9-2.6 5.8-3.6 2.4-6.8 4.6-9.3 6.6-2.6 2-4.6 4.1-6.2 6.1-1.6 2-2.7 4.1-3.5 6.2-.7 2.1-1.1 4.5-1.1 7.2 0 2 .4 3.7 1.2 5.3.8 1.5 2.3 2.3 4.4 2.3 1.1 0 2.4-.4 3.7-1.2 1.4-.8 2.3-1.8 2.9-2.9 2.2-4.4 4.3-8.6 6.2-12.7 1.9-4 3.9-8.4 6-13 1.4-.7 3.1-1.6 5.1-2.7 2-1.1 4.1-2.3 6.2-3.7 2.1-1.4 4.3-2.9 6.4-4.6.6-.5 1.3-1 1.9-1.6.1.3.1.6.2.9.5 1.7 1.3 3.2 2.4 4.5 1.1 1.3 2.4 2.3 4.1 3.1 1.6.8 3.6 1.2 5.9 1.2 2.1 0 4.1-.3 5.8-.9 1.8-.6 3.5-1.4 5-2.4s2.9-2.2 4.2-3.5c1.2-1.3 2.4-2.7 3.4-4.2 1.3.4 2.5.5 3.6.5 1.8 0 3.4-.3 4.8-1 1.5-.7 2.6-1.5 3.4-2.6.4-.6.5-1.1.5-1.5-.2-.3-.5-.8-1.1-1.3zm-72.5 29.7c-.6 1.4-1.3 2.7-1.9 4-.6 1.3-1.2 2.5-1.7 3.6s-1 2-1.4 2.7c-.6 1-1.1 1.8-1.5 2.5-.4.7-.8 1-1.3 1-.8 0-1.2-1-1.2-2.9 0-1.5.7-3.6 2.2-6.1 1.5-2.5 4.3-5.4 8.5-8.7-.5 1.2-1.1 2.5-1.7 3.9zm50.1-20.1c-2.2 1.5-4.7 2.3-7.5 2.3-2.5 0-4.5-.9-5.8-2.6-1.4-1.8-2.1-4-2.1-6.6 0-2 .3-4.1 1.1-6.3.7-2.2 1.8-4.3 3.2-6.2 1.4-1.9 3.1-3.5 5.2-4.7 2.1-1.2 4.5-1.8 7.2-1.8 1.7 0 3.2.2 4.6.6-1.8.6-3.3 1.7-4.4 3.3-1.1 1.6-1.6 3.5-1.6 5.4 0 1.3.2 2.5.7 3.6.5 1.2 1 2.2 1.6 3.2.6.9 1.3 1.8 2 2.4.7.7 1.3 1.2 1.9 1.6-1.8 2.4-3.8 4.3-6.1 5.8zm11-13.4c-.5 1.1-1.1 2.3-1.9 3.5-1.5-1.1-2.6-2.3-3.1-3.7-.5-1.4-.8-2.6-.8-3.4 0-2.2 1.2-3.4 3.6-3.4 1.3 0 2.1.2 2.4.7.4.5.5 1.3.5 2.3 0 1.5-.3 2.8-.7 4z"/></svg>